<svg version="1.1" id="Layer_1" xmlns="http://www.w3.org/2000/svg" xmlns:xlink="http://www.w3.org/1999/xlink" x="0px" y="0px"
	 viewBox="0 0 512 512" style="enable-background:new 0 0 512 512;" xml:space="preserve">
<style type="text/css">
	.st0{opacity:0.5;fill-rule:evenodd;clip-rule:evenodd;fill:#00000;}
</style>
<path class="st0" d="M394.13,187.34l0.07,142.63c0,0-0.16,3.64-2.65,8.11c-2.48,4.44-7.06,6.72-7.06,6.72l-128.41,63.08l-0.03-0.02
	l-128.42-62.94c0,0-4.6-2.28-7.08-6.72c-2.49-4.47-2.65-8.11-2.65-8.11l-0.08-142.63c0,0,0.03-6.74,3.15-12.11
	c3.32-5.74,14.74-11.63,14.74-11.63l120.2-59.62h0.06l120.28,59.52c0,0,11.41,5.87,14.74,11.61
	C394.09,180.59,394.13,187.34,394.13,187.34 M162.62,334.42l6.75-17.99l27.95,16.25l6.09,27.18l29.01,16.08l-36.7-123.91
	l-22.39-14.7l-39.02,81.36L162.62,334.42z M184.46,271.25l8.87,35.38l-17.19-8.9L184.46,271.25z M307.95,256.99l18.69,22.07
	l17.01-43.91l34.03-18.43l-29.74,71.53l26.4,32.17l-28.13,14.29l-17.61-23.16l-17.43,43.09l-32.77,18.05l27.71-66.01l-25.75-33.81
	L307.95,256.99z M375.01,187.85l-1.05,2.62l-111.74,59.54l-0.23-0.45l-4.16,137.34l-1.94,1.78l-1.81-2.01l-5.51-137.32
	l-110.53-58.77l-1.05-2.63l2.83-0.19l116.2,49.44l116.14-49.56L375.01,187.85z"/>
</svg>
